<svg xmlns="http://www.w3.org/2000/svg" width="20" height="20" viewBox="0 0 20 20" fill="none">
<path d="M14.1971 0H5.8129C2.17108 0 0 2.17 0 5.81V14.18C0 17.83 2.17108 20 5.8129 20H14.1871C17.8289 20 20 17.83 20 14.19V5.81C20.01 2.17 17.8389 0 14.1971 0ZM14.7874 7.7L9.11454 13.37C8.97385 13.5105 8.78313 13.5893 8.58428 13.5893C8.38543 13.5893 8.19471 13.5105 8.05401 13.37L5.2226 10.54C5.08305 10.3989 5.00479 10.2084 5.00479 10.01C5.00479 9.81157 5.08305 9.62114 5.2226 9.48C5.51275 9.19 5.99299 9.19 6.28313 9.48L8.58428 11.78L13.7268 6.64C14.017 6.35 14.4972 6.35 14.7874 6.64C15.0775 6.93 15.0775 7.4 14.7874 7.7Z" fill="#88BCD1"/>
</svg>