<svg width="20" height="20" viewBox="0 0 20 20" fill="none" xmlns="http://www.w3.org/2000/svg">
<path d="M14.19 0H5.81C2.17 0 0 2.17 0 5.81V14.18C0 17.83 2.17 20 5.81 20H14.18C17.82 20 19.99 17.83 19.99 14.19V5.81C20 2.17 17.83 0 14.19 0ZM14.78 7.7L9.11 13.37C8.96937 13.5105 8.77875 13.5893 8.58 13.5893C8.38125 13.5893 8.19063 13.5105 8.05 13.37L5.22 10.54C5.08052 10.3989 5.0023 10.2084 5.0023 10.01C5.0023 9.81157 5.08052 9.62114 5.22 9.48C5.51 9.19 5.99 9.19 6.28 9.48L8.58 11.78L13.72 6.64C14.01 6.35 14.49 6.35 14.78 6.64C15.07 6.93 15.07 7.4 14.78 7.7Z" fill="#333333"/>
</svg>
