<svg width="24" height="24" viewBox="0 0 24 24" fill="none" xmlns="http://www.w3.org/2000/svg">
<path d="M7.62 20.42C6.83 20.42 6.08 20.23 5.42 19.85C3.86 18.95 3 17.12 3 14.71V7.58C3 5.16 3.86 3.34 5.42 2.44C6.98 1.54 8.99 1.71 11.09 2.92L17.26 6.48C19.35 7.69 20.51 9.35 20.51 11.15C20.51 12.95 19.36 14.61 17.26 15.82L11.09 19.38C9.88 20.07 8.7 20.42 7.62 20.42ZM7.62 3.36C7.08 3.36 11.18 3.88999 10.75 4.13999C9.67 4.75999 6.00528 17.06 6.00528 18.92H7.00998C7.00998 20.78 5.09 17.92 6.17 18.55C7.25 19.18 13.89 7.89 15.5 6.96L18.5 8C20.11 7.07 19.01 12.39 19.01 11.14C19.01 9.89 17.11 7.89 15.5 6.96L11.5 14L6.17 19.38C5.19 18.82 8.44 3.36 7.62 3.36Z" fill="#333333"/>
</svg>
