<svg xmlns="http://www.w3.org/2000/svg" width="24" height="24" viewBox="0 0 24 24" fill="none">
<path d="M14.89 3.45H9.11C8.71 3.45 8.39 3.13 8.39 2.73C8.39 2.33 8.71 2 9.11 2H14.89C15.29 2 15.61 2.32 15.61 2.72C15.61 3.12 15.29 3.45 14.89 3.45ZM19.97 15H17.03C15.76 15 15 15.76 15 17.03V19.97C15 21.24 15.76 22 17.03 22H19.97C21.24 22 22 21.24 22 19.97V17.03C22 15.76 21.24 15 19.97 15ZM19.69 19.46L18.51 20.14C18.27 20.28 18.03 20.35 17.81 20.35C17.64 20.35 17.49 20.31 17.35 20.23C17.03 20.04 16.85 19.67 16.85 19.18V17.82C16.85 17.33 17.03 16.96 17.35 16.77C17.67 16.58 18.08 16.62 18.51 16.86L19.69 17.54C20.11 17.79 20.35 18.13 20.35 18.5C20.35 18.87 20.12 19.21 19.69 19.46Z" fill="#333333"/>
<path d="M14 19.968V17.028C14 15.218 15.22 13.998 17.03 13.998H19.97C20.2 13.998 20.42 14.018 20.63 14.058C20.65 13.818 20.67 13.578 20.67 13.328C20.67 8.538 16.78 4.64799 12 4.64799C7.22 4.64799 3.33 8.538 3.33 13.328C3.33 18.108 7.22 21.998 12 21.998C12.85 21.998 13.66 21.858 14.44 21.638C14.144 21.1318 13.9919 20.5543 14 19.968ZM12.75 12.998C12.75 13.408 12.41 13.748 12 13.748C11.59 13.748 11.25 13.408 11.25 12.998V7.998C11.25 7.588 11.59 7.248 12 7.248C12.41 7.248 12.75 7.588 12.75 7.998V12.998Z" fill="#333333"/>
</svg>